<svg xmlns="http://www.w3.org/2000/svg" width="36" viewBox="0 0 375 375" height="36" version="1.0">
  <path fill="#fff"
    d="M285.185 331.749 162.552 16.288c-1.21-3.227-6.86-3.227-8.07 0l-122.23 315.46c-1.212 2.419.406 4.84 4.035 4.84h55.265c1.613 0 3.633-.808 4.035-2.421l62.93-179.915 63.738 179.915c.403 1.613 2.418 2.421 3.63 2.421h55.671c2.824 0 4.84-2.421 3.629-4.84Zm0 0" />
  <path fill="#fff"
    d="m269.14 54.2-42.656 15.699c-2.296.843-3.003 2.968-2.52 4.28l63.282 171.93c9.781 26.575-9.789 48.31-34.398 57.368-24.282 8.937-51.008 3.125-63.5-21.707l-46.739-126.98-49.543 18.238 46.856 127.304c19.93 54.137 76.539 71.301 130.68 51.375 55.777-20.531 86.597-68.383 66.187-123.836L273.508 55.946c-.485-1.313-2.727-2.352-4.367-1.747Zm0 0" />
</svg>